<svg width="29" height="24" viewBox="0 0 29 24" fill="none" xmlns="http://www.w3.org/2000/svg">
<path fill-rule="evenodd" clip-rule="evenodd" d="M29.0001 3.58401C27.9537 4.04885 26.8277 4.3619 25.6466 4.50325C26.8524 3.78038 27.7782 2.6363 28.2137 1.27308C27.0867 1.94283 25.8354 2.4276 24.5063 2.69038C23.441 1.55579 21.9222 0.846191 20.244 0.846191C17.0195 0.846191 14.4051 3.46068 14.4051 6.68516C14.4051 7.14241 14.4572 7.58828 14.5568 8.01612C9.70353 7.77327 5.40138 5.44811 2.52126 1.91532C2.01848 2.77765 1.73103 3.78039 1.73103 4.85047C1.73103 6.87585 2.76032 8.66311 4.32845 9.71043C3.37031 9.68007 2.47098 9.41729 1.68265 8.97996V9.053C1.68265 11.8828 3.69664 14.2421 6.36616 14.78C5.87665 14.9128 5.36058 14.9849 4.82839 14.9849C4.45177 14.9849 4.08559 14.9479 3.7289 14.8796C4.4717 17.1991 6.62894 18.8877 9.18366 18.9351C7.1858 20.5004 4.66807 21.4348 1.93215 21.4348C1.45972 21.4348 0.994877 21.4073 0.538574 21.3523C3.12271 23.0087 6.1916 23.9763 9.48913 23.9763C20.2288 23.9763 26.102 15.0789 26.102 7.36344C26.102 7.11015 26.0972 6.85782 26.0849 6.60832C27.2271 5.78299 28.2175 4.75465 29.0001 3.58401Z" fill="white"/>
</svg>
